<?xml version="1.0" encoding="UTF-8"?> <!-- Generator: Adobe Illustrator 19.0.0, SVG Export Plug-In . SVG Version: 6.00 Build 0) --> <svg xmlns="http://www.w3.org/2000/svg" xmlns:xlink="http://www.w3.org/1999/xlink" id="Layer_1" x="0px" y="0px" viewBox="0 0 512 512" style="enable-background:new 0 0 512 512;" xml:space="preserve" width="512px" height="512px"> <g> <g> <path d="M512,202.855v-49.858H299.75c-7.522-13.15-20.79-22.605-36.366-24.903V68.556c15.584-3.394,27.294-17.291,27.294-33.879 C290.678,15.556,275.121,0,256,0s-34.678,15.556-34.678,34.678c0,16.588,11.709,30.484,27.294,33.879v59.538 c-15.576,2.298-28.843,11.753-36.366,24.903H0v49.858h86.789v100.867l-42.737,65.865H17.194v7.385 c0,42.446,34.532,76.979,76.979,76.979s76.979-34.532,76.979-76.979v-7.385h-24.487l-45.107-69.517v-97.215H212.25 c7.522,13.149,20.79,22.605,36.366,24.903V462.73h-83.21V512h181.189v-49.271h-83.21V227.757 c15.576-2.298,28.843-11.753,36.366-24.903h110.691v100.867l-42.737,65.866h-26.857v7.385c0,42.446,34.532,76.979,76.979,76.979 c42.446,0,76.979-34.532,76.979-76.979v-7.385h-24.487l-45.106-69.517v-97.215H512z M155.948,384.356 c-3.663,30.835-29.97,54.825-61.775,54.825c-19.658,0-37.208-9.171-48.616-23.453h50.985V400.96H36.776 c-2.188-5.215-3.686-10.786-4.377-16.604H155.948z M129.059,369.587H61.658l33.7-51.938L129.059,369.587z M206.652,188.085H14.769 v-20.319h191.883c-0.674,3.283-1.03,6.681-1.03,10.159C205.622,181.406,205.977,184.803,206.652,188.085z M236.091,34.678 c0-10.978,8.931-19.909,19.909-19.909s19.909,8.93,19.909,19.909S266.978,54.587,256,54.587 C245.023,54.586,236.091,45.656,236.091,34.678z M331.825,477.498L331.825,477.498v19.733h-151.65v-19.733H331.825z M256,213.535 c-19.634,0-35.609-15.973-35.609-35.609c0-19.634,15.974-35.609,35.609-35.609s35.609,15.974,35.609,35.609 C291.609,197.561,275.634,213.535,256,213.535z M479.6,384.356c-3.663,30.835-29.97,54.825-61.774,54.825 c-19.658,0-37.208-9.171-48.616-23.453h50.985V400.96h-59.767c-2.187-5.215-3.686-10.786-4.377-16.604H479.6z M452.711,369.587 H385.31l33.7-51.938L452.711,369.587z M305.348,188.085c0.674-3.283,1.03-6.681,1.03-10.159c0-3.48-0.355-6.878-1.03-10.159 h191.883v20.318H305.348z" fill="#726c5f"></path> </g> </g> <g> <g> <path d="M99.859,106.698c-2.55,5.582-4.822,11.362-6.75,17.18l14.018,4.649c1.762-5.314,3.837-10.594,6.167-15.692L99.859,106.698 z" fill="#726c5f"></path> </g> </g> <g> <g> <path d="M180.48,23.818c-28.938,14.206-53.245,36.21-70.295,63.634l12.542,7.798c15.588-25.071,37.809-45.188,64.261-58.174 L180.48,23.818z" fill="#726c5f"></path> </g> </g> <g> <g> <path d="M340.244,28.418l-7.262,12.861c4.486,2.532,8.901,5.323,13.126,8.294l8.496-12.081 C349.984,34.242,345.152,31.19,340.244,28.418z" fill="#726c5f"></path> </g> </g> <g> <g> <path d="M374.468,53.807L364.269,64.49c19.852,18.954,34.427,42.803,42.149,68.968l14.166-4.181 C412.132,100.64,396.186,74.542,374.468,53.807z" fill="#726c5f"></path> </g> </g> <g> <g> <rect x="477.519" y="304.64" width="14.769" height="16.237" fill="#726c5f"></rect> </g> </g> <g> <g> <rect x="165.406" y="330.151" width="14.769" height="16.237" fill="#726c5f"></rect> </g> </g> <g> <g> <rect x="135.266" y="265.58" width="14.769" height="16.237" fill="#726c5f"></rect> </g> </g> <g> <g> <rect x="17.194" y="317.499" width="14.769" height="16.237" fill="#726c5f"></rect> </g> </g> <g> <g> <rect x="307.367" y="330.151" width="14.769" height="16.237" fill="#726c5f"></rect> </g> </g> <g> <g> <rect x="367.685" y="268.298" width="14.769" height="16.237" fill="#726c5f"></rect> </g> </g> <g> </g> <g> </g> <g> </g> <g> </g> <g> </g> <g> </g> <g> </g> <g> </g> <g> </g> <g> </g> <g> </g> <g> </g> <g> </g> <g> </g> <g> </g> </svg> 