<?xml version="1.0" encoding="UTF-8"?> <!-- Generator: Adobe Illustrator 19.0.0, SVG Export Plug-In . SVG Version: 6.00 Build 0) --> <svg xmlns="http://www.w3.org/2000/svg" xmlns:xlink="http://www.w3.org/1999/xlink" id="Layer_1" x="0px" y="0px" viewBox="0 0 512 512" style="enable-background:new 0 0 512 512;" xml:space="preserve" width="512px" height="512px"> <g> <g> <path d="M468.972,400.546c11.332-8.401,18.693-21.868,18.693-37.025c0-22.888-16.781-41.924-38.685-45.47v-68.494H263.384v-55.01 h61.112v-48.682c0-28.039-16.942-52.185-41.122-62.771c11.332-8.401,18.693-21.868,18.693-37.026 C302.068,20.666,281.402,0,255.999,0S209.93,20.666,209.93,46.069c0,15.157,7.361,28.625,18.693,37.026 c-24.179,10.587-41.122,34.731-41.122,62.771v48.682h61.113v55.01H63.018v68.494c-21.904,3.546-38.685,22.581-38.685,45.47 c0,15.157,7.361,28.625,18.693,37.025c-24.178,10.586-41.121,34.731-41.121,62.77V512H138.9v-48.682 c0-28.04-16.942-52.185-41.122-62.771c11.332-8.401,18.693-21.868,18.693-37.025c0-22.888-16.781-41.924-38.685-45.47v-53.725 h170.828v53.725c-21.904,3.546-38.685,22.581-38.685,45.47c0,15.157,7.361,28.625,18.693,37.025 c-24.179,10.587-41.122,34.732-41.122,62.771V512h136.995v-48.682c0-28.04-16.942-52.185-41.122-62.771 c11.332-8.401,18.693-21.867,18.693-37.024c0-22.888-16.781-41.924-38.684-45.47v-53.725h170.827v53.725 c-21.903,3.546-38.684,22.581-38.684,45.47c0,15.157,7.361,28.625,18.693,37.025c-24.179,10.587-41.121,34.731-41.121,62.771V512 h136.995v-48.682C510.093,435.278,493.151,411.133,468.972,400.546z M124.131,463.318v33.913h-12.319v-31.972H97.043v31.972 H43.762v-31.972H28.992v31.972H16.675v-33.913c0-20.846,11.942-38.945,29.337-47.848l17.006,19.496v25.979h14.769v-25.979 l17.007-19.497C112.189,424.373,124.131,442.471,124.131,463.318z M61.185,410.398c2.997-0.521,6.074-0.807,9.218-0.807 s6.221,0.287,9.218,0.807l-9.218,10.567L61.185,410.398z M70.402,394.82c-14.333,0-26.438-9.688-30.133-22.856 c7.875-3.033,13.919-6.846,18.45-10.553c7.073,4.562,20.576,11.138,41.139,12.69C95.51,386.168,83.949,394.82,70.402,394.82z M101.424,359.414c-15.943-1.112-26.56-5.599-32.513-9.029c1.036-1.557,1.542-2.569,1.623-2.737l-13.25-6.523 c-0.217,0.421-4.549,8.57-17.257,14.855c3.384-13.627,15.716-23.76,30.375-23.76C86.269,332.222,99.405,344.091,101.424,359.414z M255.999,14.769c15.865,0,29.003,11.869,31.021,27.192c-15.943-1.112-26.56-5.599-32.512-9.028 c1.036-1.557,1.542-2.57,1.624-2.737l-13.25-6.522c-0.217,0.421-4.549,8.57-17.257,14.855 C229.007,24.901,241.339,14.769,255.999,14.769z M225.866,54.511c7.875-3.033,13.919-6.846,18.45-10.553 c7.073,4.561,20.576,11.138,41.138,12.69c-4.348,12.068-15.908,20.72-29.455,20.72C241.666,77.368,229.562,67.68,225.866,54.511z M265.216,92.945l-9.217,10.567l-9.218-10.567c2.997-0.521,6.074-0.807,9.218-0.807S262.219,92.424,265.216,92.945z M309.727,463.318v33.913h-12.318v-31.972H282.64v31.972h-53.282v-31.972h-14.769v31.972h-12.318v-33.913 c0-20.846,11.941-38.945,29.337-47.848l17.007,19.497v25.979h14.769v-25.979l17.007-19.497 C297.786,424.373,309.727,442.471,309.727,463.318z M246.781,410.398c2.997-0.521,6.074-0.807,9.218-0.807s6.22,0.287,9.217,0.807 l-9.217,10.567L246.781,410.398z M255.999,394.82c-14.333,0-26.438-9.688-30.133-22.856c7.875-3.033,13.919-6.846,18.45-10.553 c7.073,4.562,20.576,11.137,41.138,12.69C281.106,386.168,269.546,394.82,255.999,394.82z M287.02,359.414 c-15.943-1.112-26.56-5.599-32.512-9.028c1.036-1.557,1.542-2.569,1.623-2.737l-13.25-6.523 c-0.217,0.421-4.549,8.57-17.257,14.855c3.384-13.627,15.716-23.76,30.375-23.76C271.865,332.222,285.001,344.091,287.02,359.414z M229.359,179.778v-31.972h-14.769v31.972h-12.318v-33.913c0-20.846,11.941-38.943,29.337-47.847l17.006,19.496v25.979h14.769 v-25.979l17.007-19.496c17.395,8.904,29.337,27.002,29.337,47.847v33.913H297.41v-31.972h-14.769v31.972H229.359z M441.596,332.222c15.866,0,29.003,11.869,31.022,27.192c-15.944-1.112-26.561-5.599-32.513-9.029 c1.036-1.557,1.542-2.57,1.624-2.737l-13.251-6.522c-0.217,0.421-4.548,8.57-17.256,14.855 C414.604,342.354,426.937,332.222,441.596,332.222z M411.462,371.964c7.875-3.033,13.919-6.846,18.449-10.553 c7.073,4.562,20.577,11.138,41.139,12.69c-4.348,12.067-15.909,20.719-29.456,20.719 C427.262,394.82,415.158,385.132,411.462,371.964z M450.813,410.398l-9.218,10.567l-9.218-10.568 c2.997-0.521,6.074-0.807,9.218-0.807S447.816,409.877,450.813,410.398z M495.325,497.231h-0.001h-12.318v-31.972h-14.769v31.972 h-53.281v-31.972h-14.769v31.972h-12.318v-33.913c0-20.846,11.941-38.945,29.337-47.848l17.007,19.496v25.979h14.769v-25.979 l17.007-19.496c17.395,8.904,29.338,27.002,29.338,47.848V497.231z" fill="#726c5f"></path> </g> </g> <g> </g> <g> </g> <g> </g> <g> </g> <g> </g> <g> </g> <g> </g> <g> </g> <g> </g> <g> </g> <g> </g> <g> </g> <g> </g> <g> </g> <g> </g> </svg> 