<?xml version="1.0" encoding="UTF-8"?> <svg xmlns="http://www.w3.org/2000/svg" xmlns:xlink="http://www.w3.org/1999/xlink" width="680px" height="680px" viewBox="0 0 680 680" style="background: #FFFFFF;"> <!-- Generator: Sketch 49.2 (51160) - http://www.bohemiancoding.com/sketch --> <title>icon-xchange</title> <desc>Created with Sketch.</desc> <defs></defs> <g id="icon-xchange" stroke="none" stroke-width="1" fill="none" fill-rule="evenodd"> <path d="M423,260 C422,260 421.01,260.01 420.02,260.03 C406.31,260.29 392.95,262.34 380.17,265.96 C325.5,281.43 281.43,325.5 265.96,380.17 C262.34,392.95 260.29,406.31 260.03,420.02 C260.01,421.01 260,422 260,423 C260,511.37 334.63,586 423,586 C511.37,586 586,511.37 586,423 C586,334.63 511.37,260 423,260 Z" id="Shape" fill="#FFFFFF" fill-rule="nonzero"></path> <path d="M420,259 C420,257.66 419.98,255.33 419.95,254 C417.74,167.36 344.03,94 257,94 C168.63,94 94,168.63 94,257 C94,344.03 166.39,417.74 253,419.95 C254.33,419.98 257.66,420 259,420 L260.03,420.02 C260.29,406.31 262.34,392.95 265.96,380.17 C281.43,325.5 325.5,281.43 380.17,265.96 C392.95,262.34 406.31,260.29 420.02,260.03 L420,259 Z" id="Shape" fill="#FFFFFF" fill-rule="nonzero"></path> <path d="M363,330 C368.52,330 373,325.52 373,320 C373,314.48 368.52,310 363,310 C357.48,310 353,314.48 353,320 C353,325.52 357.48,330 363,330 Z" id="Shape" fill="#726C60" fill-rule="nonzero"></path> <path d="M429.811,250.154 C427.788,206.86 409.232,165.872 377.304,134.39 C344.35,101.896 301.625,84 257,84 C163.224,84 84,163.224 84,257 C84,301.667 101.711,344.381 133.871,377.273 C165.34,409.459 206.535,428.058 250.155,429.848 C253.897,520.6 331.517,596 423,596 C516.776,596 596,516.776 596,423 C596,331.504 520.579,253.875 429.811,250.154 Z M104,257 C104,174.065 174.065,104 257,104 C336.608,104 405.751,170.74 409.81,250.534 C403.141,251.064 396.506,252.005 389.939,253.332 C388.947,220.404 374.66,187.89 350.384,163.615 C325.209,138.439 291.171,124 257,124 C222.829,124 188.791,138.439 163.615,163.615 C138.439,188.791 124,222.829 124,257 C124,291.171 138.439,325.209 163.615,350.385 C187.89,374.66 220.404,388.948 253.332,389.94 C252.003,396.52 251.06,403.169 250.531,409.849 C170.823,406.302 104,336.935 104,257 Z M423,576 C340.065,576 270,505.935 270,423 C270,422.068 270.009,421.145 270.028,420.21 C270.267,407.615 272.136,395.061 275.582,382.893 C290.182,331.301 331.3,290.182 382.895,275.582 C395.06,272.136 407.614,270.268 420.209,270.028 C420.213,270.028 420.217,270.028 420.221,270.028 C421.144,270.009 422.067,270 422.999,270 C505.934,270 575.999,340.065 575.999,423 C575.999,505.935 505.935,576 423,576 Z" id="Shape" fill="#726C60" fill-rule="nonzero"></path> <path d="M516.385,329.615 C491.209,304.439 457.171,290 423,290 C415.249,290 407.45,290.696 399.82,292.068 C394.384,293.046 390.77,298.245 391.748,303.68 C392.726,309.116 397.925,312.727 403.36,311.752 C409.825,310.589 416.433,310 423,310 C483.196,310 536,362.804 536,423 C536,483.196 483.196,536 423,536 C362.804,536 310,483.196 310,423 C310,398.675 317.9,373.349 331.132,355.252 C334.392,350.794 333.421,344.537 328.962,341.277 C324.504,338.017 318.247,338.988 314.987,343.447 C299.341,364.846 290,394.585 290,423 C290,457.171 304.439,491.209 329.615,516.385 C354.791,541.561 388.829,556 423,556 C457.171,556 491.209,541.561 516.385,516.385 C541.561,491.209 556,457.171 556,423 C556,388.829 541.561,354.791 516.385,329.615 Z" id="Shape" fill="#726C60" fill-rule="nonzero"></path> <path d="M420,130 L440,130 C445.523,130 450,125.523 450,120 C450,114.477 445.523,110 440,110 L420,110 C414.477,110 410,114.477 410,120 C410,125.523 414.477,130 420,130 Z" id="Shape" fill="#726C60" fill-rule="nonzero"></path> <path d="M480,130 L500,130 C505.523,130 510,125.523 510,120 C510,114.477 505.523,110 500,110 L480,110 C474.477,110 470,114.477 470,120 C470,125.523 474.477,130 480,130 Z" id="Shape" fill="#726C60" fill-rule="nonzero"></path> <path d="M560,230 C554.477,230 550,234.477 550,240 L550,260 C550,265.523 554.477,270 560,270 C565.523,270 570,265.523 570,260 L570,240 C570,234.477 565.523,230 560,230 Z" id="Shape" fill="#726C60" fill-rule="nonzero"></path> <path d="M570,180 C570,174.477 565.523,170 560,170 C554.477,170 550,174.477 550,180 L550,200 C550,205.523 554.477,210 560,210 C565.523,210 570,205.523 570,200 L570,180 Z" id="Shape" fill="#726C60" fill-rule="nonzero"></path> <path d="M540,130 C545.514,130 550,134.486 550,140 C550,145.523 554.477,150 560,150 C565.523,150 570,145.523 570,140 C570,123.458 556.542,110 540,110 C534.477,110 530,114.477 530,120 C530,125.523 534.477,130 540,130 Z" id="Shape" fill="#726C60" fill-rule="nonzero"></path> <path d="M260,550 L240,550 C234.477,550 230,554.477 230,560 C230,565.523 234.477,570 240,570 L260,570 C265.523,570 270,565.523 270,560 C270,554.477 265.523,550 260,550 Z" id="Shape" fill="#726C60" fill-rule="nonzero"></path> <path d="M200,550 L180,550 C174.477,550 170,554.477 170,560 C170,565.523 174.477,570 180,570 L200,570 C205.523,570 210,565.523 210,560 C210,554.477 205.523,550 200,550 Z" id="Shape" fill="#726C60" fill-rule="nonzero"></path> <path d="M120,450 C125.523,450 130,445.523 130,440 L130,420 C130,414.477 125.523,410 120,410 C114.477,410 110,414.477 110,420 L110,440 C110,445.523 114.477,450 120,450 Z" id="Shape" fill="#726C60" fill-rule="nonzero"></path> <path d="M110,500 C110,505.523 114.477,510 120,510 C125.523,510 130,505.523 130,500 L130,480 C130,474.477 125.523,470 120,470 C114.477,470 110,474.477 110,480 L110,500 Z" id="Shape" fill="#726C60" fill-rule="nonzero"></path> <path d="M140,550 C134.486,550 130,545.514 130,540 C130,534.477 125.523,530 120,530 C114.477,530 110,534.477 110,540 C110,556.542 123.458,570 140,570 C145.523,570 150,565.523 150,560 C150,554.477 145.523,550 140,550 Z" id="Shape" fill="#726C60" fill-rule="nonzero"></path> <path d="M311.635597,226.02147 L254.5,322.727234 L247.612316,311.069374 L197.362235,226.017797 C193.393702,219.292611 192.76715,212.022479 196.346773,205.985369 C199.882057,200.023038 206.495968,197 214.310306,197 L294.689694,197 C302.504032,197 309.117943,200.023038 312.653227,205.985369 C316.233059,212.022832 315.606242,219.297429 311.635597,226.02147 Z M297.859311,217.884275 C298.570175,216.680471 298.924175,215.658662 298.98973,214.897852 C299.024098,214.498995 298.981177,214.298404 298.890639,214.14571 C298.784719,213.967075 298.577875,213.787343 298.132362,213.583711 C297.349146,213.225724 296.186156,213 294.689694,213 L214.310306,213 C212.813844,213 211.650854,213.225724 210.867638,213.583711 C210.422125,213.787343 210.215281,213.967075 210.109361,214.14571 C210.018704,214.298605 209.975944,214.498394 210.010259,214.896562 C210.075823,215.657332 210.430108,216.680104 211.139771,217.882721 L254.5,291.272766 L297.859311,217.884275 Z M247,205 L263,205 L263,306 L247,306 L247,205 Z M263,205 L263,306 L247,306 L247,205 L263,205 Z" id="Stroke-17" fill="#FFFFFF" fill-rule="nonzero"></path> <path d="M480.635597,398.02147 L423.5,494.727234 L416.612316,483.069374 L366.362235,398.017797 C362.393702,391.292611 361.76715,384.022479 365.346773,377.985369 C368.882057,372.023038 375.495968,369 383.310306,369 L463.689694,369 C471.504032,369 478.117943,372.023038 481.653227,377.985369 C485.233059,384.022832 484.606242,391.297429 480.635597,398.02147 Z M466.859311,389.884275 C467.570175,388.680471 467.924175,387.658662 467.98973,386.897852 C468.024098,386.498995 467.981177,386.298404 467.890639,386.14571 C467.784719,385.967075 467.577875,385.787343 467.132362,385.583711 C466.349146,385.225724 465.186156,385 463.689694,385 L383.310306,385 C381.813844,385 380.650854,385.225724 379.867638,385.583711 C379.422125,385.787343 379.215281,385.967075 379.109361,386.14571 C379.018704,386.298605 378.975944,386.498394 379.010259,386.896562 C379.075823,387.657332 379.430108,388.680104 380.139771,389.882721 L423.5,463.272766 L466.859311,389.884275 Z M416,377 L432,377 L432,478 L416,478 L416,377 Z M432,377 L432,478 L416,478 L416,377 L432,377 Z" id="Stroke-17" fill="#726C60" fill-rule="nonzero"></path> </g> </svg> 