<?xml version="1.0" encoding="UTF-8"?> <svg xmlns="http://www.w3.org/2000/svg" xmlns:xlink="http://www.w3.org/1999/xlink" width="680px" height="680px" viewBox="0 0 680 680" style="background: #FFFFFF;"> <!-- Generator: Sketch 49.2 (51160) - http://www.bohemiancoding.com/sketch --> <title>icon-wallet</title> <desc>Created with Sketch.</desc> <defs></defs> <g id="icon-wallet" stroke="none" stroke-width="1" fill="none" fill-rule="evenodd"> <g id="002-wallet" transform="translate(100.000000, 84.000000)" fill-rule="nonzero"> <path d="M430,193 L410,193 L350,193 L330,193 L290,193 L150,193 L110,193 L70,193 L50,193 C27.91,193 10,175.09 10,153 L10,462 C10,484.09 27.91,502 50,502 L430,502 C441.05,502 450,493.05 450,482 L450,213 C450,201.95 441.05,193 430,193 Z" id="Shape"></path> <path d="M472.34,326.194 L467.032,385.959 C466.055,396.966 456.348,405.089 445.341,404.111 L405.498,400.573 L355.694,396.15 C328.192,393.708 307.871,369.425 310.313,341.923 C311.534,328.177 318.218,316.221 328.033,308.008 C337.848,299.795 350.794,295.322 364.54,296.543 L414.344,300.966 L454.187,304.504 C465.194,305.481 473.318,315.188 472.34,326.194 Z" id="Shape"></path> <path d="M410,133 L410,193 L350,193 L350,113 L390,113 C401.05,113 410,121.95 410,133 Z" id="Shape" fill="#726C60"></path> <path d="M350,113 L350,193 L330,193 L290,193 L290,53 L330,53 C341.05,53 350,61.95 350,73 L350,113 Z" id="Shape"></path> <path d="M290,53 L290,193 L150,193 L150,10 L270,10 C281.05,10 290,18.95 290,30 L290,53 Z M250,73 C250,61.95 241.05,53 230,53 C218.95,53 210,61.95 210,73 C210,84.05 218.95,93 230,93 C218.95,93 210,101.95 210,113 C210,124.05 218.95,133 230,133 C241.05,133 250,124.05 250,113 C250,101.95 241.05,93 230,93 C241.05,93 250,84.05 250,73 Z" id="Shape"></path> <rect id="Rectangle-path" x="110" y="10" width="40" height="183"></rect> <path d="M110,10 L110,193 L70,193 L70,113 L70,30 C70,18.95 78.95,10 90,10 L110,10 Z" id="Shape"></path> <path d="M70,113 L70,193 L50,193 C27.91,193 10,175.09 10,153 C10,130.91 27.91,113 50,113 L70,113 Z" id="Shape" fill="#726C60"></path> <path d="M350,339 C344.48,339 340,343.48 340,349 C340,354.52 344.48,359 350,359 C355.52,359 360,354.52 360,349 C360,343.48 355.52,339 350,339 Z" id="Shape" fill="#726C60"></path> <path d="M90,409 C84.48,409 80,413.48 80,419 C80,424.52 84.48,429 90,429 C95.52,429 100,424.52 100,419 C100,413.48 95.52,409 90,409 Z" id="Shape" fill="#726C60"></path> <path d="M230,409 L130,409 C124.477,409 120,413.478 120,419 C120,424.522 124.477,429 130,429 L230,429 C235.522,429 240,424.522 240,419 C240,413.478 235.522,409 230,409 Z" id="Shape" fill="#726C60"></path> <path d="M460,290.72 L460,213 C460,196.458 446.542,183 430,183 L420,183 L420,133 C420,116.458 406.542,103 390,103 L360,103 L360,73 C360,56.458 346.542,43 330,43 L300,43 L300,30 C300,13.458 286.542,0 270,0 L90,0 C73.458,0 60,13.458 60,30 L60,103 L50,103 C22.43,103 0,125.43 0,153 L0,462 C0,489.57 22.43,512 50,512 L430,512 C446.542,512 460,498.542 460,482 L460,407.28 C471.639,403.152 480,392.037 480,379 L480,319 C480,305.964 471.639,294.848 460,290.72 Z M390,123 C395.514,123 400,127.486 400,133 L400,183 L360,183 L360,123 L390,123 Z M330,63 C335.514,63 340,67.486 340,73 L340,183 L300,183 L300,63 L330,63 Z M280,30 L280,183 L160,183 L160,20 L270,20 C275.514,20 280,24.486 280,30 Z M120,183 L120,20 L140,20 L140,183 L120,183 Z M80,30 C80,24.486 84.486,20 90,20 L100,20 L100,183 L80,183 L80,30 Z M50,123 L60,123 L60,183 L50,183 C33.458,183 20,169.542 20,153 C20,136.458 33.458,123 50,123 Z M430,492 L50,492 C33.458,492 20,478.542 20,462 L20,192.973 C28.363,199.265 38.753,203 50,203 L70,203 L290,203 L410,203 L430,203 C435.514,203 440,207.486 440,213 L440,289 L420,289 L420,236 C420,230.478 415.522,226 410,226 L50,226 C44.477,226 40,230.478 40,236 L40,462 C40,467.522 44.477,472 50,472 L410,472 C415.522,472 420,467.522 420,462 L420,409 L440,409 L440,482 C440,487.514 435.514,492 430,492 Z M360,289 C343.979,289 328.914,295.243 317.58,306.579 C306.243,317.914 300,332.979 300,349 C300,382.084 326.916,409 360,409 L400,409 L400,452 L60,452 L60,246 L400,246 L400,289 L360,289 Z M460,379 C460,384.514 455.514,389 450,389 L360,389 C337.944,389 320,371.056 320,349 C320,338.322 324.163,328.279 331.722,320.721 C339.279,313.163 349.322,309 360,309 L450,309 C455.514,309 460,313.486 460,319 L460,379 Z" id="Shape" fill="#726C60"></path> </g> <path d="M361.26173,156.360959 L318,229.754311 L311.108188,218.06238 L274.736108,156.357289 C271.489921,150.843436 270.964978,144.73817 274.003447,139.601829 C277.001801,134.5333 282.531405,132 288.910317,132 L347.089683,132 C353.468595,132 358.998199,134.5333 361.996553,139.601829 C365.035207,144.738483 364.510055,150.847349 361.26173,156.360959 Z M347.995702,147.03143 C347.998076,147.016977 347.999677,147.004444 348.000588,146.993847 C348.000242,146.997862 347.999951,147.001983 347.999715,147.006206 L347.995702,147.03143 Z M347.089683,148 L288.910317,148 C288.725158,148 288.554173,148.005805 288.397594,148.016255 C288.436277,148.087769 288.477698,148.161129 288.521894,148.236199 L318,198.245689 L347.477191,148.237752 C347.521814,148.16201 347.563558,148.088147 347.602482,148.01626 C347.445883,148.005807 347.274872,148 347.089683,148 Z M310,140 L326,140 L326,213 L310,213 L310,140 Z M326,140 L326,213 L310,213 L310,140 L326,140 Z" id="Stroke-17" fill="#726C60" fill-rule="nonzero"></path> </g> </svg> 