<?xml version="1.0" encoding="UTF-8"?> <svg xmlns="http://www.w3.org/2000/svg" xmlns:xlink="http://www.w3.org/1999/xlink" width="680px" height="680px" viewBox="0 0 680 680" style="background: #FFFFFF;"> <!-- Generator: Sketch 49.2 (51160) - http://www.bohemiancoding.com/sketch --> <title>icon-acquire</title> <desc>Created with Sketch.</desc> <defs></defs> <g id="icon-acquire" stroke="none" stroke-width="1" fill="none" fill-rule="evenodd"> <path d="M525.99,357.65 L526,357.64 L526,270 C526,253.43 539.43,240 556,240 C572.57,240 586,253.43 586,270 L586,403.43 C586,414.04 581.79,424.21 574.28,431.72 L511.86,494.14 C508.11,497.89 506,502.98 506,508.28 L506,523 L406,523 L406,454.15 C406,443.54 410.21,433.36 417.72,425.86 L484.79,358.79 C496.11,347.47 514.21,347.08 525.99,357.65 Z" id="Shape" fill-rule="nonzero"></path> <polygon id="Shape" fill="#726C60" fill-rule="nonzero" points="526 523 526 586 386 586 386 523 406 523 506 523"></polygon> <path d="M340,94 C417.19,94 480,156.8 480,234 C480,311.2 417.19,374 340,374 C262.81,374 200,311.2 200,234 C200,156.8 262.81,94 340,94 Z" id="Shape" fill="#FFFFFF" fill-rule="nonzero"></path> <polygon id="Shape" fill="#726C60" fill-rule="nonzero" points="294 523 294 586 154 586 154 523 174 523 274 523"></polygon> <path d="M154.01,357.65 C165.79,347.08 183.89,347.47 195.21,358.79 L262.28,425.86 C269.79,433.36 274,443.54 274,454.15 L274,523 L174,523 L174,508.28 C174,502.98 171.89,497.89 168.14,494.14 L105.72,431.72 C98.21,424.21 94,414.04 94,403.43 L94,270 C94,253.43 107.43,240 124,240 C140.57,240 154,253.43 154,270 L154,357.64 L154.01,357.65 Z" id="Shape" fill-rule="nonzero"></path> <path d="M280,164 C285.52,164 290,159.52 290,154 C290,148.48 285.52,144 280,144 C274.48,144 270,148.48 270,154 C270,159.52 274.48,164 280,164 Z" id="Shape" fill="#726C60" fill-rule="nonzero"></path> <path d="M556,230 C533.944,230 516,247.944 516,270 L516,341.27 C502.716,337.849 488.057,341.382 477.719,351.719 L410.654,418.784 C401.204,428.221 396,440.781 396,454.15 L396,513 L386,513 C380.478,513 376,517.477 376,523 L376,586 C376,591.523 380.478,596 386,596 L526,596 C531.522,596 536,591.523 536,586 L536,523 C536,517.477 531.522,513 526,513 L516,513 L516,508.28 C516,505.651 517.068,503.074 518.932,501.211 L581.352,438.791 C590.798,429.344 596,416.786 596,403.43 L596,270 C596,247.944 578.056,230 556,230 Z M516,576 L396,576 L396,533 L516,533 L516,576 Z M576,403.43 C576,411.444 572.878,418.98 567.209,424.649 L504.789,487.069 C499.203,492.655 496,500.386 496,508.28 L496,513 L416,513 L416,454.15 C416,446.128 419.12,438.594 424.791,432.931 L491.861,365.861 C499.367,358.354 511.425,358.017 519.311,365.093 C519.368,365.143 519.425,365.194 519.483,365.243 C519.711,365.438 519.925,365.648 520.141,365.864 C523.919,369.639 526,374.659 526,380 C526,385.341 523.919,390.361 520.139,394.139 L470.449,443.829 C466.544,447.734 466.544,454.066 470.449,457.972 C474.355,461.877 480.685,461.878 484.592,457.972 L534.28,408.285 C541.837,400.731 546,390.687 546,380 C546,370.16 542.462,360.868 536,353.56 L536,270 C536,258.972 544.972,250 556,250 C567.028,250 576,258.972 576,270 L576,403.43 Z" id="Shape" fill="#726C60" fill-rule="nonzero"></path> <path d="M294,513 L284,513 L284,454.15 C284,440.781 278.796,428.221 269.352,418.789 L202.282,351.719 C191.943,341.38 177.284,337.848 164,341.27 L164,270 C164,247.944 146.056,230 124,230 C101.944,230 84,247.944 84,270 L84,403.43 C84,416.786 89.202,429.344 98.648,438.791 L161.068,501.21 C162.932,503.074 164,505.65 164,508.28 L164,513 L154,513 C148.478,513 144,517.477 144,523 L144,586 C144,591.523 148.478,596 154,596 L294,596 C299.522,596 304,591.523 304,586 L304,523 C304,517.477 299.522,513 294,513 Z M175.211,487.069 L112.791,424.65 C107.122,418.98 104,411.444 104,403.43 L104,270 C104,258.972 112.972,250 124,250 C135.028,250 144,258.972 144,270 L144,353.559 C137.538,360.867 134,370.158 134,380 C134,390.687 138.163,400.731 145.719,408.281 L195.719,458.281 C199.625,462.186 205.955,462.186 209.862,458.281 C213.767,454.376 213.767,448.044 209.862,444.138 L159.859,394.135 C156.081,390.361 154,385.341 154,380 C154,374.659 156.081,369.639 159.856,365.865 C160.074,365.648 160.289,365.438 160.516,365.243 L160.688,365.093 C168.573,358.017 180.632,358.355 188.138,365.861 L255.213,432.935 C260.879,438.594 263.999,446.127 263.999,454.149 L263.999,513 L183.999,513 L183.999,508.28 C184,500.386 180.797,492.655 175.211,487.069 Z M284,576 L164,576 L164,533 L284,533 L284,576 Z" id="Shape" fill="#726C60" fill-rule="nonzero"></path> <path d="M490,234 C490,151.29 422.71,84 340,84 C257.29,84 190,151.29 190,234 C190,316.71 257.29,384 340,384 C422.71,384 490,316.71 490,234 Z M340,364 C268.317,364 210,305.682 210,234 C210,162.318 268.317,104 340,104 C411.683,104 470,162.318 470,234 C470,305.682 411.683,364 340,364 Z" id="Shape" fill="#726C60" fill-rule="nonzero"></path> <path d="M409.054,148.369 C383.033,127.359 348.977,119.435 315.633,126.624 C310.234,127.788 306.801,133.108 307.965,138.507 C309.129,143.905 314.45,147.335 319.848,146.174 C347.257,140.264 375.193,146.735 396.491,163.929 C417.786,181.124 430,206.663 430,234 C430,283.626 389.626,324 340,324 C290.374,324 250,283.626 250,234 C250,219.176 253.68,204.482 260.642,191.508 C263.253,186.642 261.425,180.58 256.559,177.968 C251.692,175.356 245.629,177.185 243.019,182.051 C234.502,197.924 230,215.887 230,234 C230,294.654 279.346,344 340,344 C400.654,344 450,294.654 450,234 C450,200.589 435.076,169.378 409.054,148.369 Z" id="Shape" fill="#726C60" fill-rule="nonzero"></path> <path d="M396.774637,208.512798 L340.5,303.761329 L334.473276,293.560702 L284.223466,208.509585 C280.426339,202.074867 279.83266,195.186176 283.206935,189.49539 C286.542425,183.870015 292.821546,181 300.310306,181 L380.689694,181 C388.178454,181 394.457575,183.870015 397.793065,189.49539 C401.167533,195.186503 400.573598,202.079493 396.774637,208.512798 Z M384.720386,201.392752 C386.116572,199.028399 386.250172,197.477889 385.7508,196.635689 C385.212411,195.727684 383.620358,195 380.689694,195 L300.310306,195 C297.379642,195 295.787589,195.727684 295.2492,196.635689 C294.749806,197.477926 294.883261,199.026453 296.278811,201.391393 L340.5,276.238671 L384.720386,201.392752 Z M334,188 L348,188 L348,289 L334,289 L334,188 Z M348,188 L348,289 L334,289 L334,188 L348,188 Z" id="Stroke-17" fill="#726C60" fill-rule="nonzero"></path> </g> </svg> 