<svg xmlns="http://www.w3.org/2000/svg" width="204" height="48" viewBox="0 0 204 48">
    <g fill="#FFF" fill-rule="nonzero">
        <path d="M71.017 35.983c0 4.109-1.044 7.117-3.131 9.024-2.088 1.907-5.285 2.86-9.592 2.86a26.62 26.62 0 0 1-4.61-.394 25.813 25.813 0 0 1-4.07-1.036l1.086-5.079c1.122.458 2.286.805 3.476 1.036 1.39.271 2.802.403 4.217.394 2.4 0 4.109-.493 5.128-1.48 1.02-.986 1.53-2.449 1.53-4.388v-.987c-.756.359-1.54.656-2.343.888a11.413 11.413 0 0 1-3.329.444c-1.54.019-3.07-.249-4.512-.789a9.445 9.445 0 0 1-3.502-2.318 10.586 10.586 0 0 1-2.268-3.822 15.83 15.83 0 0 1-.814-5.301 15.004 15.004 0 0 1 .863-5.178 11.072 11.072 0 0 1 2.515-4.044 11.51 11.51 0 0 1 4.02-2.614 14.52 14.52 0 0 1 5.375-.937c1.85-.007 3.698.142 5.523.444 1.742.296 3.221.609 4.438.938v22.339zm-16.62-10.948c0 2.532.551 4.381 1.653 5.548a5.6 5.6 0 0 0 4.266 1.75 8.916 8.916 0 0 0 2.688-.394 7.653 7.653 0 0 0 2.046-.937V17.637a17.122 17.122 0 0 0-1.578-.27 18.833 18.833 0 0 0-2.367-.124c-2.17 0-3.83.715-4.98 2.145-1.152 1.43-1.727 3.312-1.727 5.647zM75.702 25.824c-.04-2.035.302-4.06 1.01-5.967a12.526 12.526 0 0 1 2.689-4.266 11.114 11.114 0 0 1 3.846-2.565 11.916 11.916 0 0 1 4.439-.863c3.55 0 6.32 1.102 8.31 3.305 1.988 2.202 2.983 5.49 2.983 9.863 0 .328-.008.698-.025 1.11-.016.41-.04.78-.074 1.109H81.867c.164 2.07.895 3.674 2.194 4.808s3.181 1.701 5.647 1.701c1.333.012 2.664-.12 3.97-.394a16.314 16.314 0 0 0 2.835-.839l.79 4.883c-.439.207-.892.38-1.357.517-.648.2-1.307.364-1.973.494-.74.148-1.536.27-2.391.37-.868.099-1.74.148-2.614.147-2.019.044-4.027-.299-5.917-1.01a11.009 11.009 0 0 1-4.143-2.812 11.509 11.509 0 0 1-2.417-4.24 17.307 17.307 0 0 1-.789-5.351zm17.31-2.663a7.866 7.866 0 0 0-.346-2.343 5.655 5.655 0 0 0-1.01-1.923 4.787 4.787 0 0 0-1.628-1.282 5.19 5.19 0 0 0-2.293-.469 5.338 5.338 0 0 0-2.417.518c-.67.329-1.265.79-1.75 1.356a6.194 6.194 0 0 0-1.11 1.923 10.391 10.391 0 0 0-.542 2.22h11.096zM109.779 22.865l9.172-10.06h7.052l-10.677 11.49 11.318 14.301h-6.904l-9.962-11.835v11.835h-5.967V1.314l5.967-.986v22.537zM135.472 22.865l9.172-10.06h7.052l-10.677 11.49 11.318 14.301h-6.904l-9.962-11.835v11.835h-5.967V1.314l5.967-.986v22.537zM177.242 25.664a16.644 16.644 0 0 1-.888 5.573 12.337 12.337 0 0 1-2.515 4.29 11.306 11.306 0 0 1-3.92 2.762c-1.6.671-3.32 1.007-5.055.986a12.483 12.483 0 0 1-5.03-.986 11.36 11.36 0 0 1-3.896-2.762 12.638 12.638 0 0 1-2.54-4.29 16.229 16.229 0 0 1-.912-5.573 16.022 16.022 0 0 1 .912-5.548c.56-1.58 1.432-3.03 2.565-4.265a11.326 11.326 0 0 1 3.92-2.737 12.63 12.63 0 0 1 4.98-.962c1.717-.018 3.42.31 5.006.962a11.031 11.031 0 0 1 3.92 2.737 12.699 12.699 0 0 1 2.541 4.265c.628 1.782.937 3.66.912 5.548zm-6.115 0c0-2.564-.551-4.594-1.652-6.09-1.102-1.496-2.639-2.244-4.611-2.244-1.973 0-3.51.748-4.611 2.244-1.101 1.495-1.652 3.526-1.652 6.09 0 2.598.55 4.652 1.652 6.165 1.101 1.512 2.638 2.268 4.61 2.268 1.973 0 3.51-.756 4.612-2.268 1.1-1.513 1.651-3.568 1.652-6.165zM31.045 29.336a14.125 14.125 0 0 1-27.898 0 1.988 1.988 0 0 1-.174.007C1.331 29.343 0 27.347 0 24.883c0-2.462 1.332-4.459 2.973-4.459V8.447a1.487 1.487 0 1 1 2.973 0v5.537a14.124 14.124 0 0 1 22.3 0V8.447a1.487 1.487 0 1 1 2.972 0v11.977c1.643 0 2.973 1.996 2.973 4.46 0 2.463-1.33 4.46-2.973 4.46-.057 0-.115-.003-.173-.008zm-7.26-4.452a2.973 2.973 0 1 0 0 5.946 2.973 2.973 0 0 0 0-5.946zm-13.38 0a2.973 2.973 0 1 0-.003 5.946 2.973 2.973 0 0 0 .004-5.946h-.001zM179.842 4.361c1.128 0 1.994.198 2.597.595.604.396.906 1.046.906 1.948 0 .91-.305 1.566-.917 1.97-.611.403-1.484.605-2.619.606h-.534v2.531h-1.703V4.558c.39-.075.783-.126 1.179-.153.415-.03.779-.044 1.091-.044zm.11 1.452a6.07 6.07 0 0 0-.366.01l-.311.022v2.183h.535a2.9 2.9 0 0 0 1.331-.24.923.923 0 0 0 .447-.895 1.075 1.075 0 0 0-.114-.524.871.871 0 0 0-.329-.333c-.16-.09-.336-.149-.518-.174a4.292 4.292 0 0 0-.676-.05zM189.653 10.55v1.462h-5.052V4.45h1.702v6.1h3.35zM193.593 12.164a3.81 3.81 0 0 1-1.375-.224 2.555 2.555 0 0 1-.953-.622 2.484 2.484 0 0 1-.557-.949 3.905 3.905 0 0 1-.18-1.216V4.449h1.7V9.01a2.56 2.56 0 0 0 .104.78c.057.192.153.37.283.523.118.134.269.233.437.29.181.06.371.089.562.087.374.015.739-.123 1.01-.382.257-.255.387-.688.387-1.299V4.45h1.702v4.703a3.85 3.85 0 0 1-.185 1.223c-.116.356-.31.682-.568.953a2.544 2.544 0 0 1-.97.617c-.45.155-.922.229-1.397.22zM200.414 10.713c.2.004.4-.016.595-.06.135-.03.263-.086.377-.164a.55.55 0 0 0 .197-.246.876.876 0 0 0 .054-.316.732.732 0 0 0-.349-.617 5 5 0 0 0-1.2-.53 9.312 9.312 0 0 1-.743-.3 2.733 2.733 0 0 1-.665-.425 2.035 2.035 0 0 1-.48-.622 1.946 1.946 0 0 1-.186-.89 2.203 2.203 0 0 1 .197-.944c.13-.277.32-.522.557-.715.26-.206.556-.36.873-.453.376-.11.766-.163 1.157-.158a4.626 4.626 0 0 1 2.237.524l-.491 1.342a4.662 4.662 0 0 0-.704-.289 3.052 3.052 0 0 0-.933-.126 1.712 1.712 0 0 0-.879.17.571.571 0 0 0-.266.518.6.6 0 0 0 .098.35c.075.103.17.19.279.256.13.082.27.152.414.207.157.062.33.126.519.191.392.146.734.29 1.025.431.267.126.512.293.726.497.191.187.339.414.431.666.102.298.15.612.142.927a1.97 1.97 0 0 1-.742 1.644c-.495.39-1.24.584-2.236.584a6.204 6.204 0 0 1-.905-.06 5.834 5.834 0 0 1-.715-.148 3.986 3.986 0 0 1-.912-.37l.48-1.354c.266.14.546.251.836.333a4.33 4.33 0 0 0 1.212.147z"/>
    </g>
</svg>
