<?xml version="1.0" encoding="UTF-8"?> <svg xmlns="http://www.w3.org/2000/svg" xmlns:xlink="http://www.w3.org/1999/xlink" width="125px" height="28px" viewBox="0 0 125 28" style="background: #FFFFFF;"> <!-- Generator: Sketch 49 (51002) - http://www.bohemiancoding.com/sketch --> <title>xge-token-logo</title> <desc>Created with Sketch.</desc> <defs></defs> <g id="xge-token-logo" stroke="none" stroke-width="1" fill="none" fill-rule="evenodd"> <circle id="Oval" stroke="#0088CC" stroke-width="2" cx="13.9830508" cy="13.9830508" r="12.9830508"></circle> <path d="M20.1903066,9.52960363 C19.9558028,9.12247577 19.479327,8.89830508 18.8486312,8.89830508 L9.11747045,8.89830508 C8.48677473,8.89830508 8.01029886,9.12247577 7.77579506,9.52960363 C7.54129126,9.93673148 7.58535408,10.4624926 7.8997684,11.010979 L13.9830508,21.6101695 L20.0663333,11.010979 C20.3807476,10.4628778 20.4248104,9.93673148 20.1903066,9.52960363 Z M13.9830508,8.89830508 L13.9830508,21.6101695 L13.9830508,8.89830508 Z" id="Stroke-17" stroke="#0088CC" stroke-width="2"></path> <path d="M32.589,21 L37.225,14.236 L32.779,7.7 L36.199,7.7 L38.992,12.013 L41.804,7.7 L45.129,7.7 L40.683,14.198 L45.319,21 L41.899,21 L38.916,16.44 L35.914,21 L32.589,21 Z M51.6903332,21.228 C47.5483332,21.228 44.6983332,18.321 44.6983332,14.35 C44.6983332,10.569 47.6433332,7.472 51.6713332,7.472 C54.0653332,7.472 55.5093332,8.118 56.8963332,9.296 L55.0533332,11.519 C54.0273332,10.664 53.1153332,10.17 51.5763332,10.17 C49.4483332,10.17 47.7573332,12.051 47.7573332,14.35 C47.7573332,16.782 49.4293332,18.568 51.7853332,18.568 C52.8493332,18.568 53.7993332,18.302 54.5403332,17.77 L54.5403332,15.87 L51.5953332,15.87 L51.5953332,13.343 L57.3713332,13.343 L57.3713332,19.119 C56.0033332,20.278 54.1223332,21.228 51.6903332,21.228 Z M58.9166665,21 L58.9166665,7.7 L68.9486665,7.7 L68.9486665,10.303 L61.8236665,10.303 L61.8236665,13.001 L68.0936665,13.001 L68.0936665,15.604 L61.8236665,15.604 L61.8236665,18.397 L69.0436665,18.397 L69.0436665,21 L58.9166665,21 Z M77.9103329,21 L77.9103329,10.398 L73.8633329,10.398 L73.8633329,7.7 L84.8833329,7.7 L84.8833329,10.398 L80.8363329,10.398 L80.8363329,21 L77.9103329,21 Z M88.5566662,21.228 C85.4026662,21.228 83.0656662,18.891 83.0656662,15.927 C83.0656662,13.001 85.4216662,10.626 88.5946662,10.626 C91.7486662,10.626 94.0856662,12.963 94.0856662,15.927 C94.0856662,18.853 91.7296662,21.228 88.5566662,21.228 Z M88.5946662,18.739 C90.2476662,18.739 91.2356662,17.466 91.2356662,15.927 C91.2356662,14.426 90.1526662,13.115 88.5566662,13.115 C86.9036662,13.115 85.9156662,14.388 85.9156662,15.927 C85.9156662,17.428 86.9986662,18.739 88.5946662,18.739 Z M94.9089994,21 L94.9089994,7.13 L97.7969994,7.13 L97.7969994,14.521 L101.178999,10.816 L104.636999,10.816 L100.760999,14.825 L104.769999,21 L101.463999,21 L98.8039994,16.839 L97.7969994,17.903 L97.7969994,21 L94.9089994,21 Z M109.241333,21.228 C106.182333,21.228 103.921333,19.081 103.921333,15.927 C103.921333,13.02 105.992333,10.626 108.956333,10.626 C112.357333,10.626 113.915333,13.267 113.915333,16.155 C113.915333,16.383 113.896333,16.649 113.877333,16.915 L106.790333,16.915 C107.075333,18.226 107.987333,18.91 109.279333,18.91 C110.248333,18.91 110.951333,18.606 111.749333,17.865 L113.402333,19.328 C112.452333,20.506 111.084333,21.228 109.241333,21.228 Z M106.752333,15.11 L111.103333,15.11 C110.932333,13.818 110.172333,12.944 108.956333,12.944 C107.759333,12.944 106.980333,13.799 106.752333,15.11 Z M114.795666,21 L114.795666,10.816 L117.683666,10.816 L117.683666,12.26 C118.348666,11.405 119.203666,10.626 120.666666,10.626 C122.851666,10.626 124.124666,12.07 124.124666,14.407 L124.124666,21 L121.236666,21 L121.236666,15.319 C121.236666,13.951 120.590666,13.248 119.488666,13.248 C118.386666,13.248 117.683666,13.951 117.683666,15.319 L117.683666,21 L114.795666,21 Z" id="XGE-Token" fill="#0088CC"></path> </g> </svg> 